<?xml version="1.0" standalone="no"?>
<!DOCTYPE svg PUBLIC "-//W3C//DTD SVG 20010904//EN"
 "http://www.w3.org/TR/2001/REC-SVG-20010904/DTD/svg10.dtd">
<svg version="1.0" xmlns="http://www.w3.org/2000/svg"
 width="128.000000pt" height="128.000000pt" viewBox="0 0 128.000000 128.000000"
 preserveAspectRatio="xMidYMid meet">

<g transform="translate(0.000000,128.000000) scale(0.100000,-0.100000)"
fill="#000000" stroke="none">
<path d="M550 1229 c-85 -14 -207 -79 -274 -146 -58 -58 -132 -189 -138 -243
l-3 -25 159 -3 158 -3 48 45 c43 40 98 66 140 66 42 0 97 -26 140 -66 l48 -45
158 3 159 3 -3 25 c-6 54 -80 185 -138 243 -70 71 -189 132 -284 147 -74 11
-93 11 -170 -1z m181 -29 c83 -15 189 -72 253 -136 51 -51 126 -176 126 -210
0 -11 -28 -14 -136 -14 l-136 0 -49 44 c-94 84 -204 84 -298 0 l-49 -44 -136
0 c-108 0 -136 3 -136 14 0 7 16 45 35 84 97 194 313 302 526 262z"/>
<path d="M572 824 c-29 -20 -52 -66 -52 -104 0 -92 96 -148 180 -105 75 39 79
160 8 209 -29 21 -107 21 -136 0z m133 -39 c19 -18 25 -35 25 -65 0 -56 -34
-90 -90 -90 -56 0 -90 34 -90 90 0 30 6 47 25 65 18 19 35 25 65 25 30 0 47
-6 65 -25z"/>
<path d="M90 720 c0 -5 7 -10 15 -10 8 0 15 5 15 10 0 6 -7 10 -15 10 -8 0
-15 -4 -15 -10z"/>
<path d="M175 720 c3 -5 10 -10 16 -10 5 0 9 5 9 10 0 6 -7 10 -16 10 -8 0
-12 -4 -9 -10z"/>
<path d="M260 720 c0 -6 37 -10 90 -10 53 0 90 4 90 10 0 6 -37 10 -90 10 -53
0 -90 -4 -90 -10z"/>
<path d="M840 720 c0 -6 37 -10 90 -10 53 0 90 4 90 10 0 6 -37 10 -90 10 -53
0 -90 -4 -90 -10z"/>
<path d="M1080 720 c0 -5 4 -10 9 -10 6 0 13 5 16 10 3 6 -1 10 -9 10 -9 0
-16 -4 -16 -10z"/>
<path d="M1160 720 c0 -5 7 -10 15 -10 8 0 15 5 15 10 0 6 -7 10 -15 10 -8 0
-15 -4 -15 -10z"/>
<path d="M136 622 c-6 -9 24 -93 54 -152 32 -63 144 -171 211 -204 31 -15 68
-39 83 -55 23 -24 26 -34 24 -91 -4 -77 8 -84 83 -49 l49 22 49 -22 c75 -35
87 -28 83 49 -2 57 1 67 24 91 15 16 52 40 83 55 84 41 184 146 225 236 19 40
36 84 38 98 l3 25 -164 3 -164 3 -28 -34 c-37 -45 -86 -67 -149 -67 -64 0
-113 22 -148 67 l-27 33 -162 0 c-89 0 -164 -3 -167 -8z m340 -53 c86 -92 242
-92 328 0 l30 31 138 0 c104 0 138 -3 138 -12 0 -7 -13 -40 -29 -73 -34 -72
-106 -154 -175 -201 -50 -33 -51 -34 -66 -15 -10 13 -33 22 -68 27 -50 6 -53
8 -80 58 -38 71 -66 71 -104 0 -27 -50 -30 -52 -80 -58 -35 -5 -58 -14 -68
-27 -15 -19 -16 -18 -66 15 -69 47 -141 129 -175 201 -16 33 -29 66 -29 73 0
9 34 12 138 12 l138 0 30 -31z m199 -209 c26 -51 28 -52 108 -65 20 -3 37 -9
37 -13 0 -5 -18 -26 -41 -47 l-40 -40 7 -63 6 -63 -56 28 -56 27 -56 -27 -56
-28 6 63 7 63 -40 40 c-23 21 -41 42 -41 47 0 4 17 10 38 13 79 13 81 14 107
65 14 28 30 50 35 50 5 0 21 -22 35 -50z"/>
<path d="M277 266 c-13 -27 -23 -35 -48 -38 -49 -5 -59 -31 -26 -66 24 -25 27
-35 22 -64 -9 -49 11 -64 57 -42 32 15 37 15 67 -1 44 -22 65 -6 56 43 -5 29
-2 39 22 64 33 35 24 60 -26 68 -22 3 -37 15 -51 38 -26 42 -52 41 -73 -2z
m58 -26 c11 -21 25 -31 51 -36 l35 -6 -26 -28 c-23 -24 -25 -33 -19 -65 l7
-37 -33 17 c-31 16 -36 16 -68 1 l-35 -17 6 38 c5 31 2 42 -19 64 l-25 27 35
6 c26 5 40 15 51 36 9 17 18 30 20 30 2 0 11 -13 20 -30z"/>
<path d="M930 268 c-14 -23 -29 -35 -51 -38 -50 -8 -59 -33 -26 -68 24 -25 27
-35 22 -64 -9 -49 11 -64 57 -42 32 15 37 15 67 -1 44 -22 65 -6 56 43 -5 29
-2 39 22 64 33 35 23 61 -26 66 -25 3 -35 11 -48 38 -21 43 -47 44 -73 2z m55
-28 c11 -21 25 -31 51 -36 l35 -6 -25 -27 c-21 -22 -24 -33 -19 -65 l6 -38
-33 17 c-31 16 -36 16 -68 1 l-34 -17 6 37 c6 31 3 41 -19 64 l-26 28 35 6
c26 5 40 15 51 36 9 17 18 30 20 30 2 0 11 -13 20 -30z"/>
</g>
</svg>
